PathFileType	4	(X/Y/Z)	C:\Users\86182\Documents\cortex\Trimmed_M4_L2.trc
DataRate	CameraRate	NumFrames	NumMarkers	Units	OrigDataRate	OrigDataStartFrame	OrigNumFrames
100.00	100.00	      172	2	mm	100.00	1	      1101
Frame#	Time	gripper			box			
		X1	Y1	Z1	X2	Y2	Z2	

1	0.000	277.15561	150.09349	192.25217	281.61050	148.00421	56.05131	
2	0.010	277.15561	150.09349	192.25217	281.52753	148.01671	56.10119	
3	0.020	277.15564	150.09349	192.25217	281.41840	148.03334	56.16647	
4	0.030	277.15564	150.09349	192.25217	281.25974	148.05788	56.26078	
5	0.040	277.15561	150.09349	192.25217	281.03320	148.09323	56.39485	
6	0.050	277.15561	150.09348	192.25218	280.76205	148.13560	56.55487	
7	0.060	277.15558	150.09346	192.25220	280.50815	148.17516	56.70425	
8	0.070	277.15555	150.09343	192.25223	280.31543	148.20494	56.81696	
9	0.080	277.15549	150.09337	192.25226	280.18137	148.22540	56.89444	
10	0.090	277.15540	150.09332	192.25232	280.09494	148.23836	56.94337	
11	0.100	277.15530	150.09325	192.25237	280.07135	148.24152	56.95513	
12	0.110	277.15524	150.09320	192.25240	280.12836	148.23216	56.91966	
13	0.120	277.15521	150.09317	192.25241	280.25931	148.21150	56.84137	
14	0.130	277.15524	150.09320	192.25238	280.45691	148.18092	56.72496	
15	0.140	277.15530	150.09325	192.25235	280.73389	148.13864	56.56319	
16	0.150	277.15540	150.09332	192.25229	281.08499	148.08545	56.35900	
17	0.160	277.15549	150.09337	192.25224	281.44550	148.03104	56.14984	
18	0.170	277.15555	150.09343	192.25221	281.71533	147.99059	55.99376	
19	0.180	277.15558	150.09346	192.25218	281.82501	147.97459	55.93108	
20	0.190	277.15561	150.09348	192.25217	281.77817	147.98251	55.95969	
21	0.200	277.15561	150.09349	192.25217	281.64578	148.00354	56.03831	
22	0.210	277.15564	150.09349	192.25217	281.51175	148.02481	56.11808	
23	0.220	277.15564	150.09349	192.25217	281.40924	148.04126	56.17956	
24	0.230	277.15561	150.09349	192.25217	281.32690	148.05453	56.22912	
25	0.240	277.15561	150.09349	192.25217	281.26917	148.06377	56.26367	
26	0.250	277.15561	150.09348	192.25217	281.27444	148.06288	56.26022	
27	0.260	277.15561	150.09348	192.25217	281.39005	148.04443	56.19074	
28	0.270	277.15561	150.09348	192.25217	281.64352	148.00424	56.03918	
29	0.280	277.15561	150.09348	192.25217	282.00861	147.94655	55.82146	
30	0.290	277.15561	150.09348	192.25217	282.40576	147.88388	55.58486	
31	0.300	277.15561	150.09348	192.25217	282.75284	147.82915	55.37820	
32	0.310	277.15561	150.09348	192.25217	283.00082	147.79013	55.23080	
33	0.320	277.15561	150.09348	192.25217	283.12985	147.76997	55.15450	
34	0.330	277.15561	150.09348	192.25218	283.13644	147.76909	55.15105	
35	0.340	277.15561	150.09348	192.25218	283.02713	147.78632	55.21606	
36	0.350	277.15561	150.09348	192.25220	282.81851	147.81892	55.33943	
37	0.360	277.15561	150.09348	192.25220	282.54276	147.86191	55.50218	
38	0.370	277.15561	150.09348	192.25220	282.25732	147.90631	55.67046	
39	0.380	277.15561	150.09348	192.25218	282.04398	147.93936	55.79590	
40	0.390	277.15561	150.09348	192.25218	281.96759	147.95091	55.84019	
41	0.400	277.15561	150.09348	192.25218	282.01804	147.94275	55.80967	
42	0.410	277.15561	150.09348	192.25217	282.11435	147.92767	55.75269	
43	0.420	277.15561	150.09348	192.25217	282.17157	147.91908	55.71970	
44	0.430	277.15561	150.09348	192.25215	282.15222	147.92274	55.73275	
45	0.440	277.15561	150.09348	192.25215	282.06415	147.93724	55.78671	
46	0.450	277.15561	150.09348	192.25215	281.92096	147.96022	55.87301	
47	0.460	277.15561	150.09348	192.25215	281.71964	147.99207	55.99317	
48	0.470	277.15561	150.09348	192.25217	281.47513	148.03040	56.13818	
49	0.480	277.15561	150.09348	192.25217	281.25775	148.06418	56.26636	
50	0.490	277.15561	150.09348	192.25217	281.16367	148.07841	56.32085	
51	0.500	277.15561	150.09348	192.25217	281.24258	148.06543	56.27261	
52	0.510	277.15561	150.09348	192.25218	281.46030	148.03073	56.14230	
53	0.520	277.15561	150.09348	192.25218	281.73572	147.98712	55.97818	
54	0.530	277.15561	150.09348	192.25218	282.01254	147.94341	55.81347	
55	0.540	277.15561	150.09348	192.25218	282.28729	147.90010	55.64993	
56	0.550	277.15561	150.09348	192.25218	282.56854	147.85582	55.48243	
57	0.560	277.15561	150.09348	192.25217	282.83490	147.81387	55.32372	
58	0.570	277.15561	150.09348	192.25217	283.04752	147.78035	55.19687	
59	0.580	277.15561	150.09348	192.25218	283.17749	147.75974	55.11904	
60	0.590	277.15558	150.09348	192.25217	283.20901	147.75455	55.09966	
61	0.600	277.15555	150.09349	192.25218	283.13284	147.76624	55.14425	
62	0.610	277.15549	150.09351	192.25218	282.94473	147.79547	55.25522	
63	0.620	277.15543	150.09352	192.25220	282.64978	147.84143	55.42943	
64	0.630	277.15536	150.09355	192.25223	282.27286	147.90030	55.65242	
65	0.640	277.15533	150.09357	192.25226	281.87302	147.96298	55.88976	
66	0.650	277.15536	150.09358	192.25229	281.54770	148.01440	56.08417	
67	0.660	277.15549	150.09357	192.25232	281.39673	148.03899	56.17668	
68	0.670	277.15576	150.09352	192.25232	281.45544	148.03104	56.14591	
69	0.680	277.15625	150.09341	192.25229	281.66147	148.00002	56.02797	
70	0.690	277.15701	150.09322	192.25217	281.89450	147.96446	55.89316	
71	0.700	277.15802	150.09293	192.25192	282.05060	147.94046	55.80237	
72	0.710	277.15921	150.09253	192.25156	282.08774	147.93454	55.78033	
73	0.720	277.16043	150.09209	192.25110	282.03241	147.94266	55.81169	
74	0.730	277.16132	150.09166	192.25061	281.96329	147.95264	55.85044	
75	0.740	277.16129	150.09143	192.25034	281.95728	147.95259	55.85165	
76	0.750	277.15952	150.09166	192.25055	282.02255	147.94128	55.81068	
77	0.760	277.15497	150.09268	192.25162	282.09842	147.92819	55.76337	
78	0.770	277.14636	150.09496	192.25395	282.12167	147.92326	55.74695	
79	0.780	277.13263	150.09889	192.25798	282.06516	147.93076	55.77731	
80	0.790	277.11334	150.10481	192.26398	281.91025	147.95366	55.86546	
81	0.800	277.08939	150.11269	192.27188	281.62244	147.99747	56.03168	
82	0.810	277.06396	150.12187	192.28094	281.18765	148.06441	56.28399	
83	0.820	277.04385	150.13065	192.28935	280.65527	148.14673	56.59305	
84	0.830	277.04028	150.13599	192.29385	280.11823	148.22980	56.90385	
85	0.840	277.06964	150.13332	192.28951	279.65601	148.30107	57.16949	
86	0.850	277.15268	150.11676	192.26962	279.30508	148.35452	57.36858	
87	0.860	277.31192	150.08008	192.22647	279.06699	148.38953	57.50049	
88	0.870	277.56580	150.01851	192.15311	278.92426	148.40813	57.57583	
89	0.880	277.91925	149.93143	192.04712	278.85211	148.41339	57.60971	
90	0.890	278.35001	149.82527	191.91742	278.82629	148.40845	57.61761	
91	0.900	278.80063	149.71486	191.78899	278.82706	148.39610	57.61320	
92	0.910	279.19580	149.61884	191.69695	278.84116	148.37889	57.60783	
93	0.920	279.47748	149.55119	191.67171	278.86130	148.35892	57.61098	
94	0.930	279.62256	149.51695	191.72984	278.88474	148.33780	57.63109	
95	0.940	279.63614	149.51376	191.87454	278.91168	148.31708	57.67584	
96	0.950	279.54034	149.53508	192.09871	278.94342	148.29912	57.75207	
97	0.960	279.36917	149.57278	192.38724	278.97995	148.28754	57.86602	
98	0.970	279.16971	149.61824	192.71744	279.01819	148.28580	58.02344	
99	0.980	279.00015	149.66187	193.06058	279.05267	148.29512	58.22798	
100	0.990	278.90292	149.69624	193.39430	279.07953	148.31372	58.47875	
101	1.000	278.86902	149.72240	193.72012	279.10138	148.33775	58.76853	
102	1.010	278.84808	149.74883	194.05930	279.12863	148.36267	59.08358	
103	1.020	278.80035	149.78140	194.42850	279.17627	148.38416	59.40615	
104	1.030	278.73108	149.81665	194.82365	279.25714	148.39882	59.72140	
105	1.040	278.68311	149.84445	195.22458	279.37463	148.40541	60.02441	
106	1.050	278.69669	149.85786	195.61372	279.51840	148.40579	60.32252	
107	1.060	278.76788	149.86060	195.99304	279.66113	148.40570	60.63401	
108	1.070	278.85464	149.86308	196.37946	279.76529	148.41322	60.98085	
109	1.080	278.92407	149.87109	196.78465	279.81302	148.43263	61.37011	
110	1.090	278.97464	149.88216	197.20685	279.82559	148.46039	61.78483	
111	1.100	279.01047	149.89337	197.64183	279.83575	148.48994	62.20380	
112	1.110	279.01932	149.90678	198.09140	279.84940	148.51859	62.62471	
113	1.120	278.99194	149.92416	198.55569	279.84467	148.54807	63.06156	
114	1.130	278.94168	149.94261	199.02660	279.80908	148.57907	63.51941	
115	1.140	278.88452	149.95943	199.49640	279.76520	148.60719	63.97989	
116	1.150	278.81860	149.97658	199.96568	279.74472	148.62662	64.42033	
117	1.160	278.74326	149.99600	200.43443	279.75067	148.63588	64.83902	
118	1.170	278.68350	150.01349	200.89128	279.75735	148.63869	65.25372	
119	1.180	278.67148	150.02188	201.32268	279.74609	148.63989	65.67767	
120	1.190	278.70471	150.02086	201.73225	279.72687	148.64134	66.10504	
121	1.200	278.74432	150.01883	202.14063	279.71384	148.64253	66.52509	
122	1.210	278.76086	150.02306	202.56291	279.69421	148.64471	66.94256	
123	1.220	278.76614	150.03163	202.99397	279.63574	148.65251	67.37707	
124	1.230	278.78864	150.03786	203.42101	279.52603	148.66931	67.84186	
125	1.240	278.82562	150.04063	203.84552	279.39359	148.69270	68.32887	
126	1.250	278.84122	150.04633	204.28360	279.28101	148.71683	68.81884	
127	1.260	278.81201	150.05997	204.74519	279.21500	148.73630	69.29465	
128	1.270	278.75522	150.07864	205.22102	279.20676	148.74725	69.74362	
129	1.280	278.70340	150.09534	205.69312	279.26086	148.74731	70.15834	
130	1.290	278.66431	150.10739	206.15417	279.37415	148.73608	70.53905	
131	1.300	278.62665	150.11694	206.60815	279.52783	148.71631	70.89452	
132	1.310	278.59586	150.12402	207.05405	279.68277	148.69464	71.24258	
133	1.320	278.58975	150.12624	207.48387	279.79166	148.67946	71.60570	
134	1.330	278.60422	150.12517	207.89699	279.83478	148.67497	71.99387	
135	1.340	278.62073	150.12503	208.30019	279.83740	148.67758	72.39457	
136	1.350	278.64505	150.12492	208.69325	279.83606	148.68053	72.79089	
137	1.360	278.70023	150.11966	209.07071	279.83716	148.68129	73.18378	
138	1.370	278.78134	150.10893	209.43887	279.81863	148.68282	73.58850	
139	1.380	278.85104	150.09894	209.81628	279.76929	148.68802	74.01060	
140	1.390	278.88580	150.09378	210.21315	279.71246	148.69421	74.43478	
141	1.400	278.90799	150.08929	210.61946	279.67868	148.69527	74.84492	
142	1.410	278.95914	150.07765	211.01871	279.66910	148.68823	75.24607	
143	1.420	279.04736	150.05751	211.40939	279.65839	148.67546	75.65896	
144	1.430	279.13986	150.03593	211.80539	279.63153	148.65970	76.09384	
145	1.440	279.20490	150.02086	212.21793	279.60492	148.63947	76.53721	
146	1.450	279.23804	150.01505	212.64711	279.60049	148.61227	76.97038	
147	1.460	279.24387	150.01793	213.09056	279.61240	148.58034	77.39332	
148	1.470	279.21893	150.02888	213.54915	279.61169	148.55066	77.82317	
149	1.480	279.17206	150.04433	214.01711	279.58426	148.52873	78.26971	
150	1.490	279.14169	150.05537	214.47443	279.55054	148.51387	78.71985	
151	1.500	279.16580	150.05418	214.90047	279.53497	148.50217	79.15427	
152	1.510	279.23688	150.04205	215.29599	279.53088	148.49207	79.57108	
153	1.520	279.30682	150.02698	215.68277	279.50787	148.48531	79.98582	
154	1.530	279.33621	150.01352	216.08076	279.45209	148.48219	80.40973	
155	1.540	279.31796	149.99977	216.49431	279.38583	148.47760	80.83498	
156	1.550	279.25287	149.98451	216.92245	279.33749	148.46556	81.24731	
157	1.560	279.13196	149.97166	217.36954	279.30603	148.44687	81.64597	
158	1.570	278.96304	149.96355	217.83545	279.26599	148.42873	82.04449	
159	1.580	278.79468	149.95393	218.30423	279.20569	148.41653	82.45309	
160	1.590	278.68536	149.93365	218.75507	279.14819	148.40852	82.86635	
161	1.600	278.65012	149.90231	219.18318	279.12396	148.39983	83.27488	
162	1.610	278.65414	149.87032	219.60199	279.13382	148.38985	83.68233	
163	1.620	278.65778	149.84880	220.02646	279.15097	148.38329	84.10322	
164	1.630	278.64941	149.84163	220.46242	279.15994	148.38351	84.54199	
165	1.640	278.63110	149.84804	220.91154	279.18170	148.38707	84.98215	
166	1.650	278.59763	149.86656	221.37607	279.24817	148.38724	85.40379	
167	1.660	278.55109	149.89282	221.85146	279.36398	148.38106	85.80389	
168	1.670	278.52090	149.91772	222.32098	279.50427	148.37115	86.19257	
169	1.680	278.54214	149.93257	222.76675	279.64938	148.36014	86.57275	
170	1.690	278.61429	149.93581	223.18602	279.80618	148.34616	86.93391	
171	1.700	278.70090	149.93254	223.59134	279.97556	148.32817	87.27473	
172	1.710	278.76978	149.92839	223.99510	280.11932	148.31201	87.61919	
